<?xml version="1.0" standalone="no"?>
<!DOCTYPE svg PUBLIC "-//W3C//DTD SVG 20010904//EN"
 "http://www.w3.org/TR/2001/REC-SVG-20010904/DTD/svg10.dtd">
<svg version="1.0" xmlns="http://www.w3.org/2000/svg"
 width="2404.000000pt" height="2404.000000pt" viewBox="0 0 2404.000000 2404.000000"
 preserveAspectRatio="xMidYMid meet">
<metadata>
Created by potrace 1.14, written by Peter Selinger 2001-2017
</metadata>
<g transform="translate(0.000000,2404.000000) scale(0.100000,-0.100000)"
fill="#000000" stroke="none">
<path d="M11589 24036 c-2 -2 -77 -7 -167 -10 -89 -4 -172 -9 -185 -11 -12 -2
-67 -6 -122 -10 -112 -7 -133 -9 -330 -30 -198 -22 -226 -25 -260 -30 -16 -2
-52 -7 -80 -10 -44 -6 -268 -39 -335 -50 -151 -25 -271 -47 -465 -87 -172 -34
-152 -30 -275 -58 -209 -47 -385 -92 -640 -166 -69 -20 -132 -37 -140 -39 -21
-5 -243 -76 -370 -118 -204 -68 -577 -205 -645 -237 -11 -5 -60 -25 -110 -46
-49 -20 -101 -41 -115 -47 -14 -6 -27 -11 -30 -12 -14 -5 -67 -28 -118 -51
-31 -14 -97 -44 -147 -66 -49 -21 -106 -48 -125 -59 -19 -11 -48 -25 -65 -31
-44 -16 -492 -246 -625 -320 -165 -92 -183 -103 -308 -176 -62 -37 -128 -76
-147 -87 -132 -77 -525 -336 -701 -462 -75 -54 -149 -107 -165 -118 -39 -28
-263 -198 -269 -205 -3 -3 -32 -26 -65 -52 -33 -25 -94 -73 -135 -107 -41 -34
-84 -69 -95 -78 -27 -22 -139 -117 -145 -123 -3 -3 -41 -36 -85 -74 -331 -285
-799 -751 -1091 -1086 -21 -25 -41 -47 -44 -50 -27 -25 -290 -342 -367 -440
-6 -8 -32 -40 -56 -70 -45 -56 -253 -334 -313 -418 -121 -170 -420 -627 -527
-807 -7 -11 -27 -43 -45 -72 -17 -30 -32 -55 -32 -57 0 -2 -28 -52 -63 -112
-125 -214 -346 -645 -461 -899 -38 -82 -73 -156 -78 -162 -6 -7 -7 -13 -4 -13
4 0 1 -12 -8 -27 -20 -39 -66 -142 -66 -151 -1 -4 -9 -25 -20 -47 -11 -22 -19
-43 -20 -47 0 -4 -11 -31 -23 -60 -13 -29 -34 -80 -47 -113 -12 -33 -28 -73
-35 -90 -17 -40 -133 -362 -178 -495 -89 -262 -187 -596 -258 -875 -11 -44
-24 -96 -29 -115 -16 -60 -42 -174 -47 -200 -2 -14 -8 -41 -13 -60 -5 -19 -12
-51 -15 -70 -3 -19 -12 -62 -20 -95 -11 -51 -61 -309 -70 -370 -2 -11 -11 -65
-20 -120 -9 -55 -19 -113 -21 -130 -2 -16 -6 -48 -9 -70 -10 -64 -13 -86 -24
-170 -17 -128 -21 -156 -27 -223 -3 -35 -7 -72 -9 -83 -2 -10 -7 -58 -10 -107
-4 -48 -8 -97 -10 -109 -2 -12 -7 -66 -10 -120 -4 -54 -8 -116 -10 -138 -27
-337 -27 -1222 -1 -1545 2 -25 7 -88 11 -140 6 -95 12 -155 21 -240 3 -25 7
-67 9 -95 7 -76 15 -142 26 -225 5 -42 12 -94 14 -115 3 -22 10 -71 15 -110 6
-38 12 -83 15 -100 5 -41 14 -95 31 -195 8 -47 17 -101 20 -120 6 -38 72 -372
80 -405 3 -11 7 -31 10 -45 77 -382 279 -1090 424 -1480 17 -47 42 -114 54
-150 28 -78 132 -347 146 -375 5 -11 37 -85 71 -165 164 -388 421 -904 616
-1240 327 -562 613 -985 997 -1475 60 -77 112 -142 116 -145 3 -3 21 -25 40
-50 31 -39 61 -76 95 -114 6 -6 37 -43 70 -81 33 -39 64 -75 70 -81 5 -6 39
-44 75 -85 153 -172 323 -351 540 -564 177 -175 247 -241 400 -380 38 -34 285
-247 370 -318 122 -103 454 -360 593 -460 173 -125 357 -253 405 -282 9 -6 71
-46 137 -89 128 -84 520 -322 620 -376 298 -163 400 -216 600 -315 612 -301
1229 -543 1865 -731 102 -30 199 -59 215 -64 33 -10 445 -116 485 -124 14 -3
106 -23 205 -45 99 -21 196 -42 216 -45 20 -3 42 -8 50 -10 8 -3 32 -8 53 -11
21 -3 48 -7 60 -10 24 -5 37 -8 201 -35 66 -10 143 -22 170 -26 28 -3 52 -7
55 -9 3 -2 34 -6 70 -10 36 -4 72 -8 80 -10 9 -2 43 -6 75 -10 33 -4 71 -9 85
-11 14 -2 56 -7 93 -10 37 -3 78 -7 90 -10 12 -2 55 -6 97 -9 41 -3 89 -7 105
-10 38 -5 158 -14 255 -20 460 -27 1182 -27 1560 0 82 6 221 17 255 20 17 2
64 6 105 9 41 4 91 9 110 11 19 2 58 7 85 10 58 6 99 11 175 21 30 4 62 8 70
9 49 6 141 19 250 36 69 11 141 22 160 25 19 3 42 7 50 9 8 2 33 7 55 10 23 3
50 7 60 9 11 2 79 16 150 30 116 23 336 69 390 82 11 3 31 7 45 10 64 13 424
107 585 153 175 50 780 249 840 276 17 8 50 20 75 29 68 22 468 186 620 254
357 158 763 363 1050 527 36 21 90 51 120 68 30 16 62 36 71 43 8 8 19 14 22
14 27 0 570 354 897 585 95 66 445 333 521 396 24 21 85 70 134 110 50 40 92
76 95 80 3 3 43 39 90 79 89 75 191 166 319 285 88 81 538 530 626 625 70 75
205 227 285 319 30 35 73 85 95 110 22 26 54 64 70 85 17 21 35 44 40 50 6 6
47 56 91 111 379 474 730 992 1051 1550 292 508 611 1186 811 1725 19 52 41
113 50 135 117 318 321 990 368 1213 2 13 14 60 25 105 11 45 22 93 25 107 3
14 7 33 10 42 3 10 7 30 10 45 2 16 11 55 19 88 7 33 16 74 19 90 3 17 11 64
20 105 21 108 44 236 71 403 3 15 7 39 10 55 11 71 25 162 30 207 3 28 8 61
10 75 3 14 7 52 11 85 3 33 8 69 10 79 2 11 6 56 9 100 4 45 8 88 10 96 21 77
31 2110 11 2300 -4 47 -10 101 -12 120 -7 71 -53 455 -59 490 -6 33 -32 205
-39 253 -3 20 -18 99 -32 175 -14 75 -27 148 -30 162 -7 37 -24 122 -30 150
-3 14 -12 54 -19 90 -37 177 -127 535 -205 810 -69 246 -186 595 -293 875 -43
116 -86 228 -94 250 -8 22 -21 54 -28 70 -8 17 -38 89 -68 160 -30 72 -68 159
-84 195 -17 36 -40 88 -53 115 -12 28 -47 102 -78 165 -30 63 -56 117 -57 120
-2 8 -94 189 -153 300 -47 90 -102 189 -212 385 -17 31 -159 268 -235 393
-132 216 -406 616 -589 857 -65 87 -326 417 -336 425 -3 3 -24 28 -45 55 -22
28 -45 55 -51 60 -6 6 -37 41 -70 80 -32 38 -63 75 -69 81 -223 250 -268 297
-540 569 -225 226 -376 369 -505 481 -25 21 -47 41 -50 44 -3 3 -36 32 -75 65
-38 33 -72 62 -75 65 -16 16 -193 162 -300 247 -316 250 -674 506 -1002 716
-135 86 -209 132 -260 162 -9 6 -66 39 -125 74 -59 36 -126 75 -148 86 -22 12
-103 57 -180 100 -234 130 -636 329 -900 444 -66 29 -128 57 -138 62 -30 16
-465 189 -582 231 -176 64 -539 186 -670 225 -522 155 -1127 294 -1605 367
-72 12 -307 45 -355 50 -27 4 -84 11 -125 16 -97 12 -197 22 -340 35 -36 3
-83 8 -105 10 -22 2 -94 7 -160 10 -66 4 -136 9 -155 12 -42 5 -1076 14 -1081
9z"/>
</g>
</svg>
